<?xml version="1.0" ?><!DOCTYPE svg  PUBLIC '-//W3C//DTD SVG 1.1//EN'  'http://www.w3.org/Graphics/SVG/1.1/DTD/svg11.dtd'><svg enable-background="new 0 0 48 48" height="48px" version="1.1" viewBox="0 0 48 48" width="48px" xml:space="preserve" xmlns="http://www.w3.org/2000/svg" xmlns:xlink="http://www.w3.org/1999/xlink"><g id="Layer_3"><g><path d="M17.771,27.507c-0.664,0-1.2,0.536-1.2,1.195c0,0.66,0.536,1.196,1.2,1.196c0.656,0,1.19-0.536,1.19-1.196    C18.96,28.043,18.427,27.507,17.771,27.507z" fill="#241F20"/><path d="M33.586,4.488V3.517l2.271-3.431H12.143l2.163,3.431v1.025C5.954,8.259,0.124,16.614,0.124,26.346    c0,6.503,2.605,12.39,6.82,16.697l2.775,3.528v1.343h28.6v-1.343l2.736-3.528c4.217-4.308,6.822-10.194,6.822-16.697    C47.877,16.572,41.998,8.183,33.586,4.488z M15.051,7.544c1.044,0,1.89,0.844,1.89,1.888s-0.846,1.89-1.89,1.89    c-1.043,0-1.889-0.846-1.889-1.89S14.008,7.544,15.051,7.544z M7.444,24.249c-1.401,0-2.536-1.138-2.536-2.535    c0-1.403,1.135-2.536,2.536-2.536c1.4,0,2.536,1.133,2.536,2.536C9.979,23.111,8.844,24.249,7.444,24.249z M12.267,16.691    c0-2.254,1.825-4.076,4.077-4.076c2.251,0,4.076,1.822,4.076,4.076c0,2.251-1.825,4.075-4.076,4.075    C14.092,20.767,12.267,18.942,12.267,16.691z M18.745,34.816c-3.138-2.164-4.971-4.862-4.971-4.862s1.753-2.782,4.859-4.978    c2.076,0.691,3.583,2.628,3.583,4.938C22.217,32.182,20.765,34.094,18.745,34.816z M39.074,30.998    c-6.99,7.346-13.168,7.318-17.668,5.323c2.031-1.402,3.364-3.748,3.364-6.407c0-2.696-1.37-5.068-3.45-6.467    c4.403-1.944,10.51-1.873,17.696,5.431l3.387-2.55v7.168L39.074,30.998z" fill="#241F20"/></g></g></svg>