<?xml version="1.0" ?><svg data-name="Layer 1" id="Layer_1" viewBox="0 0 128 128" xmlns="http://www.w3.org/2000/svg"><title/><path d="M66.28,37.17c-.018-.028-.049-.042-.069-.068a.994.994,0,0,0,.047-.688C63.856,28.361,57.082,22.95,49.4,22.95c-7.977,0-15.021,5.938-17.13,14.439a.99.99,0,0,0-.006.418q1.953-.358,3.966-.647a1.025,1.025,0,0,1,.96.41A38.59,38.59,0,0,1,44.3,59.99c0,.115-.01.228-.011.343a3.244,3.244,0,0,1,1.112-.2h8.02a4.7,4.7,0,0,1,2.38.63,4.643,4.643,0,0,1,1.69,1.77,5.438,5.438,0,0,1-.31,5.56l-1.41,2.19-1.4,2.19a5.5,5.5,0,0,1-4.57,2.6c-.12,0-.24,0-.36-.01a4.592,4.592,0,0,1-3.88-2.72L43.5,67.818A38.9,38.9,0,0,1,38.89,79.78a1.012,1.012,0,0,1-.86.49.618.618,0,0,1-.13-.01,115.353,115.353,0,0,0,14.65.92c1.93,0,3.88-.05,5.83-.14,1.02-.05,1.99-.11,2.99-.19h.09a.988.988,0,0,0,.76-.48.938.938,0,0,0,.14-.6.869.869,0,0,0-.07-.31c-.09-.22-.19-.44-.28-.66a49.1,49.1,0,0,1-3.32-11.51c-.04-.23-.07-.45-.09-.67-.05-.36-.09-.72-.11-1.07-.03-.25-.05-.49-.06-.73a1.847,1.847,0,0,1-.01-.23c-.04-.51-.05-1.02-.05-1.51a19.679,19.679,0,0,1,1.53-7.93c2.17-4.99,4.13-10.08,5.84-15.16.22-.66.44-1.31.65-1.97a1.067,1.067,0,0,0,.04-.19A.969.969,0,0,0,66.28,37.17Z"/><circle cx="17.719" cy="53.144" r="1.602"/><path d="M23.12,76.74a.98.98,0,0,1,.21-.94,23.905,23.905,0,0,0-2.04-33.68,1.022,1.022,0,0,1-.32-.96,1,1,0,0,1,.525-.668l-.011-.019C8.463,44.7,1,51.29,1,58.59c0,7.8,8.31,14.66,22.8,18.83A.99.99,0,0,1,23.12,76.74Zm-5.4-19.26a4.34,4.34,0,1,1,4.34-4.34A4.342,4.342,0,0,1,17.72,57.48Z"/><path d="M121.49,42.97a9.04,9.04,0,0,0-9.34.37l-6.39,4.1c-.011.007-.019.019-.03.027h0a1.021,1.021,0,0,0-.208.191.94.94,0,0,0-.151.252c-.35.86-.65,1.74-.91,2.62-.12.38-.22.77-.31,1.15a5.093,5.093,0,0,0-.13.53c-.08.31-.15.62-.2.94a1.981,1.981,0,0,0-.06.26c-.05.26-.1.53-.14.8-.03.15-.05.31-.07.46-.03.18-.05.35-.07.53-.04.23-.06.46-.08.69-.03.26-.06.52-.07.78a1.491,1.491,0,0,0-.02.21c-.02.29-.04.59-.05.88-.01.38-.02.77-.02,1.15,0,.49.01.97.04,1.45.01.39.04.78.08,1.17s.07.79.13,1.19c.06.46.13.93.21,1.39.07.4.16.81.25,1.21.06.29.13.57.21.85.07.3.15.61.24.9v.01c.2.69.42,1.37.67,2.05a.965.965,0,0,0,.187.308,1.084,1.084,0,0,0,.293.232h.01a6.47,6.47,0,0,1,.67.39l5.92,3.8a9.575,9.575,0,0,0,1.149.631c.126.059.257.1.385.151.265.109.53.219.8.3.175.054.353.087.531.13.228.055.454.114.684.151.2.032.4.045.6.064s.424.042.638.046c.062,0,.123.013.184.013.183,0,.367-.023.55-.035.139-.009.277-.011.416-.026.253-.028.5-.076.755-.125.137-.027.274-.045.41-.079.26-.064.516-.151.773-.238.122-.042.245-.072.366-.119a9.5,9.5,0,0,0,1.1-.507A11.006,11.006,0,0,0,127,64.44V52.75A11.006,11.006,0,0,0,121.49,42.97Z"/><path d="M97.1,70.24c-.02.02-.11.08-.19.14a1.064,1.064,0,0,1-.58.17.9.9,0,0,1-.28-.04,1.053,1.053,0,0,1-.65-.57,29.537,29.537,0,0,1,.2-22.56.982.982,0,0,1,.64-.57,1.023,1.023,0,0,1,.838.135h0a1.985,1.985,0,0,0,.169-.527c.011-.188.012-.388.012-.587,0-9.071-6.675-16.45-14.88-16.45a14.483,14.483,0,0,0-12.5,7.539.993.993,0,0,0-.117.354c.326.05.659.093.982.147a85.639,85.639,0,0,1,10.99,2.45,1,1,0,0,0-1.18.52,1.324,1.324,0,0,0-.079.168h0v0c-.15.3-.29.6-.43.9-.38.82-.75,1.65-1.1,2.48-.17.41-.34.83-.51,1.25-.17.44-.34.87-.5,1.31-.1.27-.2.55-.29.82-.16.43-.31.87-.45,1.31-.29.87-.56,1.74-.8,2.62-.11.36-.21.73-.3,1.1-.11.39-.21.79-.3,1.18-.19.78-.37,1.57-.52,2.36q-.105.45-.18.9c-.08.44-.16.88-.23,1.32-.09.57-.18,1.13-.26,1.7-.04.26-.07.53-.1.8-.06.5-.12,1-.17,1.51a34.433,34.433,0,0,0-.18,3.49c0,.42.01.83.03,1.24.01.29.02.58.04.87s.04.58.07.86c.03.35.07.7.11,1.04.02.16.04.31.07.47.05.37.11.73.17,1.08.02.09.03.17.05.25.09.42.17.84.27,1.26v.02c.11.41.21.82.33,1.23.02.09.05.18.07.26q.15.51.33,1.02c.13.39.27.78.42,1.16.04.11.08.21.12.31.128.306.257.611.394.917h0l.006.013c.03.06.05.12.08.18a1,1,0,0,0,.91.59.851.851,0,0,0,.23-.03q-3.24.78-6.69,1.35c-.322.054-.66.089-.984.14a1,1,0,0,0,.148.408A14.53,14.53,0,0,0,82.38,87.06c8.082,0,14.753-7.274,14.87-16.217a.991.991,0,0,0-.183-.577C97.078,70.257,97.1,70.245,97.1,70.24ZM78.2,76.21a.486.486,0,0,1-.04-.11,1.164,1.164,0,0,0,.05.11Z"/></svg>